# xmcd
#
# Track frame offsets: 
#        150
#        11817
#        25750
#        38815
#        50872
#        63955
#        77672
#        89827
#        101725
#        114127
#        126350
#        139397
#        153187
#        165275
#        177475
#        191040
#        205192
#        219217
#        232940
#        245910
#        257812
#        270047
#        284135
#        295705
#
# Disc length: 4120 seconds
#
# Revision: 0
# Processed by: cddbd v1.5.2PL0 Copyright (c) Steve Scherf et al.
# Submitted via: ExactAudioCopyFreeDBPlugin 1.0
#
DISCID=5c101618
DTITLE=Washboard Sam - Complete Recorded Works, Vol. 5
DYEAR=1940
DGENRE=Blues
TTITLE0=Why Did You Do That To Me?
TTITLE1=Diggin' My Potatoes, No. 2
TTITLE2=Chiselin' Blues
TTITLE3=Morning Dove Blues
TTITLE4=Good Time Tonight
TTITLE5=Dissatisfied Blues
TTITLE6=I'm Going To St. Louis
TTITLE7=Greyhound Bus
TTITLE8=Oh Joe
TTITLE9=Just Got To Hold You
TTITLE10=Yes I Got Your Woman
TTITLE11=Good Luck Blues
TTITLE12=Ain't You Comin' Out Tonight
TTITLE13=Come On Back
TTITLE14=Just To Prove I Love You
TTITLE15=Every Tub Stands On Its Own Button
TTITLE16=She's Makin' A Fool Out Of Me
TTITLE17=She's A Bad Luck Woman
TTITLE18=Little Leg Woman
TTITLE19=She's All In My Life
TTITLE20=He's A Creepin' Man
TTITLE21=I Can Beat You Playing That Hand
TTITLE22=Down At The Bad Man's Hall
TTITLE23=Traveling Man
EXTD=
EXTT0=
EXTT1=
EXTT2=
EXTT3=
EXTT4=
EXTT5=
EXTT6=
EXTT7=
EXTT8=
EXTT9=
EXTT10=
EXTT11=
EXTT12=
EXTT13=
EXTT14=
EXTT15=
EXTT16=
EXTT17=
EXTT18=
EXTT19=
EXTT20=
EXTT21=
EXTT22=
EXTT23=
PLAYORDER=
